{
  "accessors": [
    {
      "bufferView": 2,
      "componentType": 5126,
      "count": 4,
      "max": [
        167.02890014648438,
        167.02890014648438,
        0
      ],
      "min": [
        -167.02890014648438,
        -167.02890014648438,
        0
      ],
      "type": "VEC3"
    },
    {
      "bufferView": 2,
      "byteOffset": 48,
      "componentType": 5126,
      "count": 4,
      "max": [
        0,
        0,
        1
      ],
      "min": [
        0,
        0,
        1
      ],
      "type": "VEC3"
    },
    {
      "bufferView": 3,
      "componentType": 5126,
      "count": 4,
      "max": [
        1,
        2.3841872121010965e-07,
        0,
        1
      ],
      "min": [
        1,
        1.827084332717277e-07,
        0,
        1
      ],
      "type": "VEC4"
    },
    {
      "bufferView": 1,
      "componentType": 5126,
      "count": 4,
      "max": [
        1,
        1
      ],
      "min": [
        2.98022992950564e-08,
        2.98022992950564e-08
      ],
      "type": "VEC2"
    },
    {
      "bufferView": 0,
      "componentType": 5125,
      "count": 6,
      "max": [
        3
      ],
      "min": [
        0
      ],
      "type": "SCALAR"
    },
    {
      "bufferView": 2,
      "byteOffset": 96,
      "componentType": 5126,
      "count": 57141,
      "max": [
        102.90959930419922,
        43.297100067138672,
        77.446197509765625
      ],
      "min": [
        -102.90959930419922,
        -43.297100067138672,
        19.878999710083008
      ],
      "type": "VEC3"
    },
    {
      "bufferView": 2,
      "byteOffset": 685788,
      "componentType": 5126,
      "count": 57141,
      "max": [
        1,
        1,
        1
      ],
      "min": [
        -1,
        -1,
        -1
      ],
      "type": "VEC3"
    },
    {
      "bufferView": 3,
      "byteOffset": 64,
      "componentType": 5126,
      "count": 57141,
      "max": [
        1,
        1,
        0.99999731779098511,
        1
      ],
      "min": [
        -0.99945521354675293,
        -0.9999997615814209,
        -0.99999916553497314,
        -1
      ],
      "type": "VEC4"
    },
    {
      "bufferView": 1,
      "byteOffset": 32,
      "componentType": 5126,
      "count": 57141,
      "max": [
        0.99490839242935181,
        0.99659347534179688
      ],
      "min": [
        0.00050000002374872565,
        0.00050000002374872565
      ],
      "type": "VEC2"
    },
    {
      "bufferView": 1,
      "byteOffset": 457160,
      "componentType": 5126,
      "count": 57141,
      "max": [
        3.7296578884124756,
        3.7279839515686035
      ],
      "min": [
        -2.7352499961853027,
        -2.7478799819946289
      ],
      "type": "VEC2"
    },
    {
      "bufferView": 0,
      "byteOffset": 24,
      "componentType": 5125,
      "count": 318693,
      "max": [
        57140
      ],
      "min": [
        0
      ],
      "type": "SCALAR"
    },
    {
      "bufferView": 2,
      "byteOffset": 1371480,
      "componentType": 5126,
      "count": 7096,
      "max": [
        107.27230072021484,
        46.045589447021484,
        72.694328308105469
      ],
      "min": [
        -107.17379760742188,
        -38.971160888671875,
        17.124910354614258
      ],
      "type": "VEC3"
    },
    {
      "bufferView": 2,
      "byteOffset": 1456632,
      "componentType": 5126,
      "count": 7096,
      "max": [
        1,
        1,
        1
      ],
      "min": [
        -1,
        -1,
        -1
      ],
      "type": "VEC3"
    },
    {
      "bufferView": 3,
      "byteOffset": 914320,
      "componentType": 5126,
      "count": 7096,
      "max": [
        1,
        0.99999994039535522,
        1,
        1
      ],
      "min": [
        -1,
        -0.99994111061096191,
        -1,
        -1
      ],
      "type": "VEC4"
    },
    {
      "bufferView": 1,
      "byteOffset": 914288,
      "componentType": 5126,
      "count": 7096,
      "max": [
        0.98449438810348511,
        0.99949997663497925
      ],
      "min": [
        0.00050000002374872565,
        0.00050000002374872565
      ],
      "type": "VEC2"
    },
    {
      "bufferView": 1,
      "byteOffset": 971056,
      "componentType": 5126,
      "count": 7096,
      "max": [
        3.6619539260864258,
        3.7468791007995605
      ],
      "min": [
        -2.7352499961853027,
        -2.7478799819946289
      ],
      "type": "VEC2"
    },
    {
      "bufferView": 0,
      "byteOffset": 1274796,
      "componentType": 5125,
      "count": 38220,
      "max": [
        7095
      ],
      "min": [
        0
      ],
      "type": "SCALAR"
    },
    {
      "bufferView": 2,
      "byteOffset": 1541784,
      "componentType": 5126,
      "count": 2452,
      "max": [
        80.272491455078125,
        38.731861114501953,
        17.163990020751953
      ],
      "min": [
        -78.4111328125,
        -32.975040435791016,
        0.0025415420532226562
      ],
      "type": "VEC3"
    },
    {
      "bufferView": 2,
      "byteOffset": 1571208,
      "componentType": 5126,
      "count": 2452,
      "max": [
        0.97582012414932251,
        0.97582054138183594,
        0.64702081680297852
      ],
      "min": [
        -0.98759078979492188,
        -0.99544239044189453,
        -1
      ],
      "type": "VEC3"
    },
    {
      "bufferView": 3,
      "byteOffset": 1027856,
      "componentType": 5126,
      "count": 2452,
      "max": [
        0.99982291460037231,
        0.99515295028686523,
        0.80651760101318359,
        1
      ],
      "min": [
        -0.96100568771362305,
        -0.99328434467315674,
        -0.93570858240127563,
        -1
      ],
      "type": "VEC4"
    },
    {
      "bufferView": 1,
      "byteOffset": 1027824,
      "componentType": 5126,
      "count": 2452,
      "max": [
        0.74585849046707153,
        0.28487598896026611
      ],
      "min": [
        0.34555470943450928,
        0.0053599257953464985
      ],
      "type": "VEC2"
    },
    {
      "bufferView": 1,
      "byteOffset": 1047440,
      "componentType": 5126,
      "count": 2452,
      "max": [
        2.1105198860168457,
        3.7136180400848389
      ],
      "min": [
        -0.87110662460327148,
        -1.2628840208053589
      ],
      "type": "VEC2"
    },
    {
      "bufferView": 0,
      "byteOffset": 1427676,
      "componentType": 5125,
      "count": 13104,
      "max": [
        2451
      ],
      "min": [
        0
      ],
      "type": "SCALAR"
    }
  ],
  "asset": {
    "extras": {
      "author": "MADE.COM (https://sketchfab.com/made-it)",
      "license": "CC-BY-NC-4.0 (http://creativecommons.org/licenses/by-nc/4.0/)",
      "source": "https://sketchfab.com/3d-models/connor-3-seater-sofa-vintage-brown-leather-74621a0b5657432a96269a993909fdc1",
      "title": "Connor 3 Seater Sofa, Vintage Brown Leather"
    },
    "generator": "Sketchfab-5.11.0",
    "version": "2.0"
  },
  "bufferViews": [
    {
      "buffer": 0,
      "byteLength": 1480092,
      "byteOffset": 0,
      "name": "floatBufferViews",
      "target": 34963
    },
    {
      "buffer": 0,
      "byteLength": 1067056,
      "byteOffset": 1480092,
      "byteStride": 8,
      "name": "floatBufferViews",
      "target": 34962
    },
    {
      "buffer": 0,
      "byteLength": 1600632,
      "byteOffset": 2547148,
      "byteStride": 12,
      "name": "floatBufferViews",
      "target": 34962
    },
    {
      "buffer": 0,
      "byteLength": 1067088,
      "byteOffset": 4147780,
      "byteStride": 16,
      "name": "floatBufferViews",
      "target": 34962
    }
  ],
  "buffers": [
    {
      "byteLength": 5214868,
      "uri": "scene.bin"
    }
  ],
  "images": [
    {
      "uri": "textures/EnvironmentAmbientLight_baseColor.jpeg"
    },
    {
      "uri": "textures/FLOOR_baseColor.png"
    },
    {
      "uri": "textures/LEATHER_baseColor.jpeg"
    },
    {
      "uri": "textures/LEATHER_0_baseColor.jpeg"
    }
  ],
  "materials": [
    {
      "doubleSided": true,
      "emissiveFactor": [
        0,
        0,
        0
      ],
      "name": "LEATHER",
      "pbrMetallicRoughness": {
        "baseColorFactor": [
          1,
          1,
          1,
          1
        ],
        "baseColorTexture": {
          "index": 2,
          "texCoord": 0
        },
        "metallicFactor": 0.13586128049999999,
        "roughnessFactor": 0.32145579270000002
      }
    },
    {
      "doubleSided": true,
      "emissiveFactor": [
        0,
        0,
        0
      ],
      "name": "LEATHER_0",
      "pbrMetallicRoughness": {
        "baseColorFactor": [
          1,
          1,
          1,
          1
        ],
        "baseColorTexture": {
          "index": 3,
          "texCoord": 0
        },
        "metallicFactor": 0.12976371950000001,
        "roughnessFactor": 0.29096798779999999
      }
    },
    {
      "doubleSided": true,
      "emissiveFactor": [
        0,
        0,
        0
      ],
      "name": "EnvironmentAmbientLight",
      "pbrMetallicRoughness": {
        "baseColorFactor": [
          1,
          1,
          1,
          1
        ],
        "baseColorTexture": {
          "index": 0,
          "texCoord": 0
        },
        "metallicFactor": 0.5322027439,
        "roughnessFactor": 0.50171493899999997
      }
    },
    {
      "alphaMode": "BLEND",
      "doubleSided": true,
      "emissiveFactor": [
        0,
        0,
        0
      ],
      "name": "FLOOR",
      "pbrMetallicRoughness": {
        "baseColorFactor": [
          0.20895960365279997,
          0.20895960365279997,
          0.20895960365279997,
          1
        ],
        "baseColorTexture": {
          "index": 1,
          "texCoord": 0
        },
        "metallicFactor": 0,
        "roughnessFactor": 1
      }
    }
  ],
  "meshes": [
    {
      "name": "FLOOR",
      "primitives": [
        {
          "attributes": {
            "NORMAL": 1,
            "POSITION": 0,
            "TANGENT": 2,
            "TEXCOORD_0": 3
          },
          "indices": 4,
          "material": 3,
          "mode": 4
        }
      ]
    },
    {
      "name": "LEATHER",
      "primitives": [
        {
          "attributes": {
            "NORMAL": 6,
            "POSITION": 5,
            "TANGENT": 7,
            "TEXCOORD_0": 8,
            "TEXCOORD_1": 9
          },
          "indices": 10,
          "material": 0,
          "mode": 4
        }
      ]
    },
    {
      "name": "LEATHER_2",
      "primitives": [
        {
          "attributes": {
            "NORMAL": 12,
            "POSITION": 11,
            "TANGENT": 13,
            "TEXCOORD_0": 14,
            "TEXCOORD_1": 15
          },
          "indices": 16,
          "material": 1,
          "mode": 4
        }
      ]
    },
    {
      "name": "LEGS",
      "primitives": [
        {
          "attributes": {
            "NORMAL": 18,
            "POSITION": 17,
            "TANGENT": 19,
            "TEXCOORD_0": 20,
            "TEXCOORD_1": 21
          },
          "indices": 22,
          "material": 2,
          "mode": 4
        }
      ]
    }
  ],
  "nodes": [
    {
      "children": [
        1
      ],
      "name": "RootNode (gltf orientation matrix)",
      "rotation": [
        -0.70710678118654746,
        -0,
        -0,
        0.70710678118654757
      ]
    },
    {
      "children": [
        2
      ],
      "name": "RootNode (model correction matrix)"
    },
    {
      "children": [
        3,
        5,
        9
      ],
      "name": "Collada visual scene group"
    },
    {
      "children": [
        4
      ],
      "matrix": [
        -1,
        0,
        0,
        0,
        0,
        -1,
        5.6426e-07,
        0,
        0,
        -5.6426e-07,
        -1,
        0,
        0,
        0,
        0,
        1
      ],
      "name": "Plane001"
    },
    {
      "mesh": 0,
      "name": "FLOOR"
    },
    {
      "children": [
        6,
        7,
        8
      ],
      "matrix": [
        1,
        0,
        0,
        0,
        0,
        0.99999979999999999,
        -5.6426e-07,
        0,
        0,
        5.6426e-07,
        1,
        0,
        0,
        0,
        0,
        1
      ],
      "name": "Object008"
    },
    {
      "mesh": 1,
      "name": "LEATHER"
    },
    {
      "mesh": 2,
      "name": "LEATHER_2"
    },
    {
      "mesh": 3,
      "name": "LEGS"
    },
    {
      "children": [
        10
      ],
      "name": "EnvironmentAmbientLight"
    },
    {
      "name": "EnvironmentAmbientLight"
    }
  ],
  "samplers": [
    {
      "magFilter": 9729,
      "minFilter": 9987,
      "wrapS": 10497,
      "wrapT": 10497
    }
  ],
  "scene": 0,
  "scenes": [
    {
      "name": "OSG_Scene",
      "nodes": [
        0
      ]
    }
  ],
  "textures": [
    {
      "sampler": 0,
      "source": 0
    },
    {
      "sampler": 0,
      "source": 1
    },
    {
      "sampler": 0,
      "source": 2
    },
    {
      "sampler": 0,
      "source": 3
    }
  ]
}

