{
  "accessors": [
    {
      "bufferView": 2,
      "componentType": 5126,
      "count": 982,
      "max": [
        26.72547721862793,
        -11.056119918823242,
        21.762353897094727
      ],
      "min": [
        -21.397890090942383,
        -14.417396545410156,
        -9.244673728942871
      ],
      "type": "VEC3"
    },
    {
      "bufferView": 2,
      "byteOffset": 11784,
      "componentType": 5126,
      "count": 982,
      "max": [
        1.0,
        7.754648686386645e-05,
        1.0
      ],
      "min": [
        -1.0,
        -1.0,
        -1.0
      ],
      "type": "VEC3"
    },
    {
      "bufferView": 3,
      "componentType": 5126,
      "count": 982,
      "max": [
        1.0,
        1.0,
        1.0,
        1.0
      ],
      "min": [
        -1.0,
        -1.0,
        -1.0,
        1.0
      ],
      "type": "VEC4"
    },
    {
      "bufferView": 1,
      "componentType": 5126,
      "count": 982,
      "max": [
        0.9782999157905579,
        0.9899618625640869
      ],
      "min": [
        0.0005000000237487257,
        0.0005000000237487257
      ],
      "type": "VEC2"
    },
    {
      "bufferView": 0,
      "componentType": 5125,
      "count": 3369,
      "type": "SCALAR"
    },
    {
      "bufferView": 2,
      "byteOffset": 23568,
      "componentType": 5126,
      "count": 172,
      "max": [
        26.72547721862793,
        0.15368372201919556,
        21.762338638305664
      ],
      "min": [
        -21.397890090942383,
        -11.056122779846191,
        -9.244673728942871
      ],
      "type": "VEC3"
    },
    {
      "bufferView": 2,
      "byteOffset": 25632,
      "componentType": 5126,
      "count": 172,
      "max": [
        1.0,
        1.0,
        1.0
      ],
      "min": [
        -0.9984698295593262,
        -5.59503746444534e-07,
        -1.0
      ],
      "type": "VEC3"
    },
    {
      "bufferView": 3,
      "byteOffset": 15712,
      "componentType": 5126,
      "count": 172,
      "max": [
        7.98473774921149e-06,
        1.0,
        8.03650891612051e-06,
        1.0
      ],
      "min": [
        -1.0,
        -1.0,
        -1.8789984096656553e-05,
        1.0
      ],
      "type": "VEC4"
    },
    {
      "bufferView": 1,
      "byteOffset": 7856,
      "componentType": 5126,
      "count": 172,
      "max": [
        0.9384315609931946,
        0.9891617894172668
      ],
      "min": [
        0.0005000000237487257,
        0.0005000000237487257
      ],
      "type": "VEC2"
    },
    {
      "bufferView": 0,
      "byteOffset": 13476,
      "componentType": 5125,
      "count": 378,
      "type": "SCALAR"
    },
    {
      "bufferView": 2,
      "byteOffset": 27696,
      "componentType": 5126,
      "count": 335,
      "max": [
        26.377220153808594,
        12.978463172912598,
        21.45441436767578
      ],
      "min": [
        -21.02060890197754,
        -11.48180103302002,
        -11.157336235046387
      ],
      "type": "VEC3"
    },
    {
      "bufferView": 2,
      "byteOffset": 31716,
      "componentType": 5126,
      "count": 335,
      "max": [
        1.0,
        0.9934524297714233,
        0.9984868168830872
      ],
      "min": [
        -0.9994890689849854,
        -0.9941023588180542,
        -0.9984868168830872
      ],
      "type": "VEC3"
    },
    {
      "bufferView": 3,
      "byteOffset": 18464,
      "componentType": 5126,
      "count": 335,
      "max": [
        0.8294243216514587,
        1.0,
        1.0,
        1.0
      ],
      "min": [
        -0.8294237852096558,
        -0.9999971985816956,
        -1.0,
        1.0
      ],
      "type": "VEC4"
    },
    {
      "bufferView": 1,
      "byteOffset": 9232,
      "componentType": 5126,
      "count": 335,
      "max": [
        0.9886686205863953,
        0.9865591526031494
      ],
      "min": [
        0.11298345029354095,
        0.005186817143112421
      ],
      "type": "VEC2"
    },
    {
      "bufferView": 0,
      "byteOffset": 14988,
      "componentType": 5125,
      "count": 1245,
      "type": "SCALAR"
    },
    {
      "bufferView": 2,
      "byteOffset": 35736,
      "componentType": 5126,
      "count": 932,
      "max": [
        25.4041748046875,
        -10.552992820739746,
        20.009553909301758
      ],
      "min": [
        -19.710298538208008,
        -15.457558631896973,
        -7.170261383056641
      ],
      "type": "VEC3"
    },
    {
      "bufferView": 2,
      "byteOffset": 46920,
      "componentType": 5126,
      "count": 932,
      "max": [
        1.0,
        1.0,
        1.0
      ],
      "min": [
        -1.0,
        -1.0,
        -1.0
      ],
      "type": "VEC3"
    },
    {
      "bufferView": 3,
      "byteOffset": 23824,
      "componentType": 5126,
      "count": 932,
      "max": [
        1.0,
        1.0,
        1.0,
        1.0
      ],
      "min": [
        -0.9897573590278625,
        -1.0,
        -1.0,
        1.0
      ],
      "type": "VEC4"
    },
    {
      "bufferView": 1,
      "byteOffset": 11912,
      "componentType": 5126,
      "count": 932,
      "max": [
        0.9979825615882874,
        0.999500036239624
      ],
      "min": [
        0.005186810158193111,
        0.005186809226870537
      ],
      "type": "VEC2"
    },
    {
      "bufferView": 0,
      "byteOffset": 19968,
      "componentType": 5125,
      "count": 2898,
      "type": "SCALAR"
    },
    {
      "bufferView": 2,
      "byteOffset": 58104,
      "componentType": 5126,
      "count": 93,
      "max": [
        11.558525085449219,
        -11.192580223083496,
        17.607563018798828
      ],
      "min": [
        -17.115957260131836,
        -13.834371566772461,
        -5.0302276611328125
      ],
      "type": "VEC3"
    },
    {
      "bufferView": 2,
      "byteOffset": 59220,
      "componentType": 5126,
      "count": 93,
      "max": [
        0.30774450302124023,
        -0.934166669845581,
        0.35337933897972107
      ],
      "min": [
        -0.3075045943260193,
        -0.999997615814209,
        -0.3568371534347534
      ],
      "type": "VEC3"
    },
    {
      "bufferView": 3,
      "byteOffset": 38736,
      "componentType": 5126,
      "count": 93,
      "max": [
        -0.9514689445495605,
        0.3075060248374939,
        0.0022034496068954468,
        1.0
      ],
      "min": [
        -1.0,
        -0.30774497985839844,
        -0.002208481077104807,
        1.0
      ],
      "type": "VEC4"
    },
    {
      "bufferView": 1,
      "byteOffset": 19368,
      "componentType": 5126,
      "count": 93,
      "max": [
        0.9862594604492188,
        0.7212079167366028
      ],
      "min": [
        0.7550764679908752,
        0.5441700220108032
      ],
      "type": "VEC2"
    },
    {
      "bufferView": 0,
      "byteOffset": 31560,
      "componentType": 5125,
      "count": 420,
      "type": "SCALAR"
    }
  ],
  "asset": {
    "extras": {
      "author": "hypermegadev (https://sketchfab.com/hypermegadev)",
      "license": "CC-BY-4.0 (http://creativecommons.org/licenses/by/4.0/)",
      "source": "https://sketchfab.com/3d-models/old-tv-833d046f00394fb1a69514b3c96e86bd",
      "title": "Old TV"
    },
    "generator": "Sketchfab-10.85.0",
    "version": "2.0"
  },
  "bufferViews": [
    {
      "buffer": 0,
      "byteLength": 33240,
      "name": "floatBufferViews",
      "target": 34963
    },
    {
      "buffer": 0,
      "byteLength": 20112,
      "byteOffset": 33240,
      "byteStride": 8,
      "name": "floatBufferViews",
      "target": 34962
    },
    {
      "buffer": 0,
      "byteLength": 60336,
      "byteOffset": 53352,
      "byteStride": 12,
      "name": "floatBufferViews",
      "target": 34962
    },
    {
      "buffer": 0,
      "byteLength": 40224,
      "byteOffset": 113688,
      "byteStride": 16,
      "name": "floatBufferViews",
      "target": 34962
    }
  ],
  "buffers": [
    {
      "byteLength": 153912,
      "uri": "scene.bin"
    }
  ],
  "images": [
    {
      "uri": "textures/02_-_Default_baseColor.png"
    },
    {
      "uri": "textures/02_-_Default_metallicRoughness.png"
    },
    {
      "uri": "textures/02_-_Default_normal.png"
    },
    {
      "uri": "textures/08_-_Default_baseColor.png"
    },
    {
      "uri": "textures/08_-_Default_metallicRoughness.png"
    },
    {
      "uri": "textures/08_-_Default_normal.png"
    },
    {
      "uri": "textures/07_-_Default_baseColor.png"
    },
    {
      "uri": "textures/07_-_Default_metallicRoughness.png"
    },
    {
      "uri": "textures/07_-_Default_normal.png"
    },
    {
      "uri": "textures/03_-_Default_baseColor.png"
    },
    {
      "uri": "textures/03_-_Default_metallicRoughness.png"
    },
    {
      "uri": "textures/03_-_Default_normal.png"
    },
    {
      "uri": "textures/09_-_Default_baseColor.png"
    },
    {
      "uri": "textures/09_-_Default_metallicRoughness.png"
    },
    {
      "uri": "textures/09_-_Default_normal.png"
    }
  ],
  "materials": [
    {
      "doubleSided": true,
      "name": "02_-_Default",
      "normalTexture": {
        "index": 2
      },
      "pbrMetallicRoughness": {
        "baseColorTexture": {
          "index": 0
        },
        "metallicRoughnessTexture": {
          "index": 1
        },
        "roughnessFactor": 0.8873634125382437
      }
    },
    {
      "doubleSided": true,
      "name": "08_-_Default",
      "normalTexture": {
        "index": 5
      },
      "pbrMetallicRoughness": {
        "baseColorTexture": {
          "index": 3
        },
        "metallicRoughnessTexture": {
          "index": 4
        },
        "roughnessFactor": 0.6989413219323412
      }
    },
    {
      "doubleSided": true,
      "name": "07_-_Default",
      "normalTexture": {
        "index": 8
      },
      "pbrMetallicRoughness": {
        "baseColorTexture": {
          "index": 6
        },
        "metallicRoughnessTexture": {
          "index": 7
        }
      }
    },
    {
      "doubleSided": true,
      "name": "03_-_Default",
      "normalTexture": {
        "index": 11
      },
      "pbrMetallicRoughness": {
        "baseColorTexture": {
          "index": 9
        },
        "metallicRoughnessTexture": {
          "index": 10
        },
        "roughnessFactor": 0.18392094094287395
      }
    },
    {
      "doubleSided": true,
      "name": "09_-_Default",
      "normalTexture": {
        "index": 14
      },
      "pbrMetallicRoughness": {
        "baseColorTexture": {
          "index": 12
        },
        "metallicRoughnessTexture": {
          "index": 13
        }
      }
    }
  ],
  "meshes": [
    {
      "name": "TV_LP_02 - Default_0",
      "primitives": [
        {
          "attributes": {
            "NORMAL": 1,
            "POSITION": 0,
            "TANGENT": 2,
            "TEXCOORD_0": 3
          },
          "indices": 4,
          "material": 0,
          "mode": 4
        }
      ]
    },
    {
      "name": "TV_LP_08 - Default_0",
      "primitives": [
        {
          "attributes": {
            "NORMAL": 6,
            "POSITION": 5,
            "TANGENT": 7,
            "TEXCOORD_0": 8
          },
          "indices": 9,
          "material": 1,
          "mode": 4
        }
      ]
    },
    {
      "name": "TV_LP_07 - Default_0",
      "primitives": [
        {
          "attributes": {
            "NORMAL": 11,
            "POSITION": 10,
            "TANGENT": 12,
            "TEXCOORD_0": 13
          },
          "indices": 14,
          "material": 2,
          "mode": 4
        }
      ]
    },
    {
      "name": "TV_LP_03 - Default_0",
      "primitives": [
        {
          "attributes": {
            "NORMAL": 16,
            "POSITION": 15,
            "TANGENT": 17,
            "TEXCOORD_0": 18
          },
          "indices": 19,
          "material": 3,
          "mode": 4
        }
      ]
    },
    {
      "name": "TV_LP_09 - Default_0",
      "primitives": [
        {
          "attributes": {
            "NORMAL": 21,
            "POSITION": 20,
            "TANGENT": 22,
            "TEXCOORD_0": 23
          },
          "indices": 24,
          "material": 4,
          "mode": 4
        }
      ]
    }
  ],
  "nodes": [
    {
      "children": [
        1
      ],
      "matrix": [
        1.0,
        0.0,
        0.0,
        0.0,
        0.0,
        2.220446049250313e-16,
        -1.0,
        0.0,
        0.0,
        1.0,
        2.220446049250313e-16,
        0.0,
        0.0,
        0.0,
        0.0,
        1.0
      ],
      "name": "Sketchfab_model"
    },
    {
      "children": [
        2
      ],
      "matrix": [
        1.0,
        0.0,
        0.0,
        0.0,
        0.0,
        0.0,
        1.0,
        0.0,
        0.0,
        -1.0,
        0.0,
        0.0,
        0.0,
        0.0,
        0.0,
        1.0
      ],
      "name": "e141a0c76c9c4f19930d5fba4a8045a7.fbx"
    },
    {
      "children": [
        3
      ],
      "name": "RootNode"
    },
    {
      "children": [
        4
      ],
      "matrix": [
        1.0,
        0.0,
        0.0,
        0.0,
        0.0,
        2.220446049250313e-16,
        -1.0,
        0.0,
        0.0,
        1.0,
        2.220446049250313e-16,
        0.0,
        0.5358538627624512,
        17.288623809814453,
        16.21433448791504,
        1.0
      ],
      "name": "TV_LP"
    },
    {
      "children": [
        5,
        6,
        7,
        8,
        9
      ],
      "matrix": [
        1.0,
        0.0,
        -0.0,
        0.0,
        0.0,
        1.0,
        0.0,
        0.0,
        0.0,
        0.0,
        1.0,
        0.0,
        -2.6637935638427734,
        1.2395477294921875,
        -5.302509307861328,
        1.0
      ],
      "name": "Object_4"
    },
    {
      "mesh": 0,
      "name": "TV_LP_02 - Default_0"
    },
    {
      "mesh": 1,
      "name": "TV_LP_08 - Default_0"
    },
    {
      "mesh": 2,
      "name": "TV_LP_07 - Default_0"
    },
    {
      "mesh": 3,
      "name": "TV_LP_03 - Default_0"
    },
    {
      "mesh": 4,
      "name": "TV_LP_09 - Default_0"
    }
  ],
  "samplers": [
    {
      "magFilter": 9729,
      "minFilter": 9987,
      "wrapS": 10497,
      "wrapT": 10497
    }
  ],
  "scene": 0,
  "scenes": [
    {
      "name": "Sketchfab_Scene",
      "nodes": [
        0
      ]
    }
  ],
  "textures": [
    {
      "sampler": 0,
      "source": 0
    },
    {
      "sampler": 0,
      "source": 1
    },
    {
      "sampler": 0,
      "source": 2
    },
    {
      "sampler": 0,
      "source": 3
    },
    {
      "sampler": 0,
      "source": 4
    },
    {
      "sampler": 0,
      "source": 5
    },
    {
      "sampler": 0,
      "source": 6
    },
    {
      "sampler": 0,
      "source": 7
    },
    {
      "sampler": 0,
      "source": 8
    },
    {
      "sampler": 0,
      "source": 9
    },
    {
      "sampler": 0,
      "source": 10
    },
    {
      "sampler": 0,
      "source": 11
    },
    {
      "sampler": 0,
      "source": 12
    },
    {
      "sampler": 0,
      "source": 13
    },
    {
      "sampler": 0,
      "source": 14
    }
  ]
}
