{
  "accessors": [
    {
      "bufferView": 2,
      "componentType": 5126,
      "count": 65038,
      "max": [
        0.3836474120616913,
        0.014027567580342293,
        0.5255320072174072
      ],
      "min": [
        -0.3104438781738281,
        -0.014167269691824913,
        -0.5400606989860535
      ],
      "type": "VEC3"
    },
    {
      "bufferView": 2,
      "byteOffset": 780456,
      "componentType": 5126,
      "count": 65038,
      "max": [
        0.9999997615814209,
        1.0,
        0.9999997615814209
      ],
      "min": [
        -0.9999849796295166,
        -1.0,
        -0.9999986886978149
      ],
      "type": "VEC3"
    },
    {
      "bufferView": 1,
      "componentType": 5126,
      "count": 65038,
      "max": [
        0.0,
        0.0
      ],
      "min": [
        0.0,
        0.0
      ],
      "type": "VEC2"
    },
    {
      "bufferView": 0,
      "componentType": 5125,
      "count": 390144,
      "type": "SCALAR"
    },
    {
      "bufferView": 2,
      "byteOffset": 1560912,
      "componentType": 5126,
      "count": 24925,
      "max": [
        13.388301849365234,
        1.2802483979612589e-06,
        4.151272296905518
      ],
      "min": [
        -8.582962036132813,
        -0.9000554084777832,
        -4.387291431427002
      ],
      "type": "VEC3"
    },
    {
      "bufferView": 2,
      "byteOffset": 1860012,
      "componentType": 5126,
      "count": 24925,
      "max": [
        1.0,
        1.0,
        1.0
      ],
      "min": [
        -1.0,
        -1.0,
        -1.0
      ],
      "type": "VEC3"
    },
    {
      "bufferView": 1,
      "byteOffset": 520304,
      "componentType": 5126,
      "count": 24925,
      "max": [
        0.0,
        0.0
      ],
      "min": [
        0.0,
        0.0
      ],
      "type": "VEC2"
    },
    {
      "bufferView": 0,
      "byteOffset": 1560576,
      "componentType": 5125,
      "count": 110400,
      "type": "SCALAR"
    }
  ],
  "asset": {
    "extras": {
      "author": "Gjuroo (https://sketchfab.com/gjuroo)",
      "license": "CC-BY-4.0 (http://creativecommons.org/licenses/by/4.0/)",
      "source": "https://sketchfab.com/3d-models/liverpool-fc-logo-7fcc99eef3a642dea34983ae0a50ceb5",
      "title": "Liverpool FC logo"
    },
    "generator": "Sketchfab-12.65.0",
    "version": "2.0"
  },
  "bufferViews": [
    {
      "buffer": 0,
      "byteLength": 2002176,
      "name": "floatBufferViews",
      "target": 34963
    },
    {
      "buffer": 0,
      "byteLength": 719704,
      "byteOffset": 2002176,
      "byteStride": 8,
      "name": "floatBufferViews",
      "target": 34962
    },
    {
      "buffer": 0,
      "byteLength": 2159112,
      "byteOffset": 2721880,
      "byteStride": 12,
      "name": "floatBufferViews",
      "target": 34962
    }
  ],
  "buffers": [
    {
      "byteLength": 4880992,
      "uri": "scene.bin"
    }
  ],
  "materials": [
    {
      "doubleSided": true,
      "name": "material",
      "pbrMetallicRoughness": {
        "baseColorFactor": [
          0.592578,
          0.0,
          0.0558533,
          1.0
        ],
        "metallicFactor": 0.1,
        "roughnessFactor": 0.05
      }
    }
  ],
  "meshes": [
    {
      "name": "Object_0",
      "primitives": [
        {
          "attributes": {
            "NORMAL": 1,
            "POSITION": 0,
            "TEXCOORD_0": 2
          },
          "indices": 3,
          "material": 0,
          "mode": 4
        }
      ]
    },
    {
      "name": "Object_1",
      "primitives": [
        {
          "attributes": {
            "NORMAL": 5,
            "POSITION": 4,
            "TEXCOORD_0": 6
          },
          "indices": 7,
          "material": 0,
          "mode": 4
        }
      ]
    }
  ],
  "nodes": [
    {
      "children": [
        1
      ],
      "matrix": [
        1.0,
        0.0,
        0.0,
        0.0,
        0.0,
        2.220446049250313e-16,
        -1.0,
        0.0,
        0.0,
        1.0,
        2.220446049250313e-16,
        0.0,
        0.0,
        0.0,
        0.0,
        1.0
      ],
      "name": "Sketchfab_model"
    },
    {
      "children": [
        2
      ],
      "name": "root"
    },
    {
      "children": [
        3,
        5
      ],
      "matrix": [
        1.0,
        0.0,
        0.0,
        0.0,
        0.0,
        2.220446049250313e-16,
        1.0,
        0.0,
        0.0,
        -1.0,
        2.220446049250313e-16,
        0.0,
        0.0,
        0.0,
        0.0,
        1.0
      ],
      "name": "GLTF_SceneRootNode"
    },
    {
      "children": [
        4
      ],
      "matrix": [
        1.0,
        0.0,
        0.0,
        0.0,
        0.0,
        0.0,
        1.0,
        0.0,
        0.0,
        -1.0,
        0.0,
        0.0,
        0.04472058638930321,
        1.0047701597213745,
        0.07807399332523346,
        1.0
      ],
      "name": "Bird_1"
    },
    {
      "mesh": 0,
      "name": "Object_4"
    },
    {
      "children": [
        6
      ],
      "matrix": [
        0.029603302478790283,
        0.0,
        0.0,
        0.0,
        0.0,
        0.0,
        0.029603302478790283,
        0.0,
        0.0,
        -0.029603302478790283,
        0.0,
        0.0,
        -0.03921850770711899,
        0.3283892869949341,
        0.09148455411195755,
        1.0
      ],
      "name": "LFC_2"
    },
    {
      "mesh": 1,
      "name": "Object_6"
    }
  ],
  "scene": 0,
  "scenes": [
    {
      "name": "Sketchfab_Scene",
      "nodes": [
        0
      ]
    }
  ]
}
